<mxfile host="Electron" modified="2024-12-16T23:18:03.529Z" agent="Mozilla/5.0 (Windows NT 10.0; Win64; x64) AppleWebKit/537.36 (KHTML, like Gecko) draw.io/22.0.3 Chrome/114.0.5735.289 Electron/25.8.4 Safari/537.36" etag="i-36c8DppS73PN8XMHFu" version="22.0.3" type="device">
  <diagram name="Page-1" id="RNT1ySPEvrKjZQsBxZHJ">
    <mxGraphModel dx="2223" dy="877" grid="0" gridSize="10" guides="1" tooltips="1" connect="1" arrows="1" fold="1" page="0" pageScale="1" pageWidth="850" pageHeight="1100" math="0" shadow="0">
      <root>
        <mxCell id="0" />
        <mxCell id="1" parent="0" />
        <mxCell id="02oa2oxIcThMdSmwcblW-5" value="" style="endArrow=classic;html=1;rounded=0;entryX=0.25;entryY=0;entryDx=0;entryDy=0;exitX=0.5;exitY=0;exitDx=0;exitDy=0;" edge="1" parent="1" target="02oa2oxIcThMdSmwcblW-4" source="cMFRUIiFbclHW-MXSYqX-19">
          <mxGeometry width="50" height="50" relative="1" as="geometry">
            <mxPoint x="492" y="433" as="sourcePoint" />
            <mxPoint x="616.25" y="317" as="targetPoint" />
          </mxGeometry>
        </mxCell>
        <mxCell id="cMFRUIiFbclHW-MXSYqX-5" value="" style="shape=cube;whiteSpace=wrap;html=1;boundedLbl=1;backgroundOutline=1;darkOpacity=0.05;darkOpacity2=0.1;rotation=0;size=20;direction=west;flipV=1;" parent="1" vertex="1">
          <mxGeometry x="-110" y="230" width="150" height="90" as="geometry" />
        </mxCell>
        <mxCell id="cMFRUIiFbclHW-MXSYqX-9" value="&lt;div&gt;Front-end app&lt;/div&gt;react_app" style="rounded=0;whiteSpace=wrap;html=1;fillColor=#B5739D;strokeColor=#990099;" parent="1" vertex="1">
          <mxGeometry x="-100" y="260" width="110" height="50" as="geometry" />
        </mxCell>
        <mxCell id="cMFRUIiFbclHW-MXSYqX-11" value="" style="shape=cube;whiteSpace=wrap;html=1;boundedLbl=1;backgroundOutline=1;darkOpacity=0.05;darkOpacity2=0.1;rotation=0;size=20;direction=west;flipV=1;" parent="1" vertex="1">
          <mxGeometry x="74" y="230" width="150" height="90" as="geometry" />
        </mxCell>
        <mxCell id="cMFRUIiFbclHW-MXSYqX-12" value="Back-end app&lt;div&gt;person&lt;/div&gt;" style="rounded=0;whiteSpace=wrap;html=1;fillColor=#B5739D;strokeColor=#990099;" parent="1" vertex="1">
          <mxGeometry x="84" y="260" width="110" height="50" as="geometry" />
        </mxCell>
        <mxCell id="cMFRUIiFbclHW-MXSYqX-13" value="" style="shape=cube;whiteSpace=wrap;html=1;boundedLbl=1;backgroundOutline=1;darkOpacity=0.05;darkOpacity2=0.1;rotation=0;size=20;direction=west;flipV=1;" parent="1" vertex="1">
          <mxGeometry x="255" y="230" width="150" height="90" as="geometry" />
        </mxCell>
        <mxCell id="cMFRUIiFbclHW-MXSYqX-14" value="Beck-end app&lt;div&gt;device&lt;/div&gt;" style="rounded=0;whiteSpace=wrap;html=1;fillColor=#B5739D;strokeColor=#990099;" parent="1" vertex="1">
          <mxGeometry x="265" y="260" width="110" height="50" as="geometry" />
        </mxCell>
        <mxCell id="cMFRUIiFbclHW-MXSYqX-15" value="" style="shape=cube;whiteSpace=wrap;html=1;boundedLbl=1;backgroundOutline=1;darkOpacity=0.05;darkOpacity2=0.1;rotation=0;size=20;direction=west;flipV=1;" parent="1" vertex="1">
          <mxGeometry x="618" y="230" width="150" height="90" as="geometry" />
        </mxCell>
        <mxCell id="cMFRUIiFbclHW-MXSYqX-16" value="MySQL Server&lt;div&gt;db-person&lt;/div&gt;" style="rounded=0;whiteSpace=wrap;html=1;fillColor=#B5739D;strokeColor=#990099;" parent="1" vertex="1">
          <mxGeometry x="628" y="260" width="110" height="50" as="geometry" />
        </mxCell>
        <mxCell id="cMFRUIiFbclHW-MXSYqX-17" value="" style="shape=cube;whiteSpace=wrap;html=1;boundedLbl=1;backgroundOutline=1;darkOpacity=0.05;darkOpacity2=0.1;rotation=0;size=20;direction=west;flipV=1;" parent="1" vertex="1">
          <mxGeometry x="786" y="227" width="150" height="90" as="geometry" />
        </mxCell>
        <mxCell id="cMFRUIiFbclHW-MXSYqX-18" value="MySQL Server&lt;div&gt;db-device&lt;/div&gt;" style="rounded=0;whiteSpace=wrap;html=1;fillColor=#B5739D;strokeColor=#990099;" parent="1" vertex="1">
          <mxGeometry x="796" y="257" width="110" height="50" as="geometry" />
        </mxCell>
        <mxCell id="cMFRUIiFbclHW-MXSYqX-19" value="&lt;font face=&quot;Times New Roman&quot;&gt;Browser&lt;/font&gt;" style="rounded=0;whiteSpace=wrap;html=1;" parent="1" vertex="1">
          <mxGeometry x="408.25" y="437" width="170" height="80" as="geometry" />
        </mxCell>
        <mxCell id="cMFRUIiFbclHW-MXSYqX-20" value="&lt;font face=&quot;Times New Roman&quot; style=&quot;font-size: 12px;&quot;&gt;Docker container&lt;/font&gt;" style="text;html=1;align=center;verticalAlign=middle;whiteSpace=wrap;rounded=0;" parent="1" vertex="1">
          <mxGeometry x="-97.5" y="230" width="125" height="20" as="geometry" />
        </mxCell>
        <mxCell id="cMFRUIiFbclHW-MXSYqX-21" value="&lt;font face=&quot;Times New Roman&quot; style=&quot;font-size: 12px;&quot;&gt;Docker container&lt;/font&gt;" style="text;html=1;align=center;verticalAlign=middle;whiteSpace=wrap;rounded=0;" parent="1" vertex="1">
          <mxGeometry x="86.5" y="230" width="125" height="20" as="geometry" />
        </mxCell>
        <mxCell id="cMFRUIiFbclHW-MXSYqX-22" value="&lt;font face=&quot;Times New Roman&quot; style=&quot;font-size: 12px;&quot;&gt;Docker container&lt;/font&gt;" style="text;html=1;align=center;verticalAlign=middle;whiteSpace=wrap;rounded=0;" parent="1" vertex="1">
          <mxGeometry x="267.5" y="230" width="125" height="20" as="geometry" />
        </mxCell>
        <mxCell id="cMFRUIiFbclHW-MXSYqX-23" value="&lt;font face=&quot;Times New Roman&quot; style=&quot;font-size: 12px;&quot;&gt;Docker container&lt;/font&gt;" style="text;html=1;align=center;verticalAlign=middle;whiteSpace=wrap;rounded=0;" parent="1" vertex="1">
          <mxGeometry x="630.5" y="230" width="125" height="20" as="geometry" />
        </mxCell>
        <mxCell id="cMFRUIiFbclHW-MXSYqX-24" value="&lt;font face=&quot;Times New Roman&quot; style=&quot;font-size: 12px;&quot;&gt;Docker container&lt;/font&gt;" style="text;html=1;align=center;verticalAlign=middle;whiteSpace=wrap;rounded=0;" parent="1" vertex="1">
          <mxGeometry x="798.5" y="227" width="125" height="20" as="geometry" />
        </mxCell>
        <mxCell id="cMFRUIiFbclHW-MXSYqX-25" style="edgeStyle=orthogonalEdgeStyle;rounded=0;orthogonalLoop=1;jettySize=auto;html=1;exitX=0.5;exitY=1;exitDx=0;exitDy=0;" parent="1" source="cMFRUIiFbclHW-MXSYqX-23" target="cMFRUIiFbclHW-MXSYqX-23" edge="1">
          <mxGeometry relative="1" as="geometry" />
        </mxCell>
        <mxCell id="cMFRUIiFbclHW-MXSYqX-26" value="&lt;font face=&quot;Times New Roman&quot; style=&quot;font-size: 12px;&quot;&gt;3000&lt;/font&gt;" style="text;html=1;align=center;verticalAlign=middle;whiteSpace=wrap;rounded=0;" parent="1" vertex="1">
          <mxGeometry x="-130" y="320" width="125" height="20" as="geometry" />
        </mxCell>
        <mxCell id="cMFRUIiFbclHW-MXSYqX-27" value="&lt;font face=&quot;Times New Roman&quot; style=&quot;font-size: 12px;&quot;&gt;8081&lt;/font&gt;" style="text;html=1;align=center;verticalAlign=middle;whiteSpace=wrap;rounded=0;" parent="1" vertex="1">
          <mxGeometry x="72" y="321" width="125" height="20" as="geometry" />
        </mxCell>
        <mxCell id="cMFRUIiFbclHW-MXSYqX-29" value="&lt;font face=&quot;Times New Roman&quot; style=&quot;font-size: 12px;&quot;&gt;8082&lt;/font&gt;" style="text;html=1;align=center;verticalAlign=middle;whiteSpace=wrap;rounded=0;" parent="1" vertex="1">
          <mxGeometry x="302" y="320" width="125" height="20" as="geometry" />
        </mxCell>
        <mxCell id="cMFRUIiFbclHW-MXSYqX-30" value="&lt;font face=&quot;Times New Roman&quot; style=&quot;font-size: 12px;&quot;&gt;3306&lt;/font&gt;" style="text;html=1;align=center;verticalAlign=middle;whiteSpace=wrap;rounded=0;" parent="1" vertex="1">
          <mxGeometry x="655" y="320" width="125" height="20" as="geometry" />
        </mxCell>
        <mxCell id="cMFRUIiFbclHW-MXSYqX-31" value="&lt;font face=&quot;Times New Roman&quot; style=&quot;font-size: 12px;&quot;&gt;3306&lt;/font&gt;" style="text;html=1;align=center;verticalAlign=middle;whiteSpace=wrap;rounded=0;" parent="1" vertex="1">
          <mxGeometry x="835" y="317" width="71" height="20" as="geometry" />
        </mxCell>
        <mxCell id="cMFRUIiFbclHW-MXSYqX-32" value="" style="endArrow=classic;html=1;rounded=0;entryX=0.75;entryY=0;entryDx=0;entryDy=0;exitX=0;exitY=0.5;exitDx=0;exitDy=0;" parent="1" source="cMFRUIiFbclHW-MXSYqX-19" target="cMFRUIiFbclHW-MXSYqX-26" edge="1">
          <mxGeometry width="50" height="50" relative="1" as="geometry">
            <mxPoint x="228.25" y="497" as="sourcePoint" />
            <mxPoint x="82" y="317" as="targetPoint" />
          </mxGeometry>
        </mxCell>
        <mxCell id="cMFRUIiFbclHW-MXSYqX-33" value="" style="endArrow=classic;html=1;rounded=0;entryX=0;entryY=0;entryDx=0;entryDy=0;exitX=0.5;exitY=0;exitDx=0;exitDy=0;" parent="1" source="cMFRUIiFbclHW-MXSYqX-19" target="cMFRUIiFbclHW-MXSYqX-31" edge="1">
          <mxGeometry width="50" height="50" relative="1" as="geometry">
            <mxPoint x="751.25" y="473" as="sourcePoint" />
            <mxPoint x="985.4999999999995" y="314" as="targetPoint" />
          </mxGeometry>
        </mxCell>
        <mxCell id="cMFRUIiFbclHW-MXSYqX-34" value="" style="endArrow=classic;html=1;rounded=0;entryX=0.5;entryY=0;entryDx=0;entryDy=0;" parent="1" edge="1" target="cMFRUIiFbclHW-MXSYqX-27">
          <mxGeometry width="50" height="50" relative="1" as="geometry">
            <mxPoint x="492" y="436" as="sourcePoint" />
            <mxPoint x="268.25" y="317" as="targetPoint" />
          </mxGeometry>
        </mxCell>
        <mxCell id="cMFRUIiFbclHW-MXSYqX-36" value="" style="endArrow=classic;html=1;rounded=0;entryX=0;entryY=0;entryDx=0;entryDy=0;exitX=0.5;exitY=0;exitDx=0;exitDy=0;" parent="1" target="cMFRUIiFbclHW-MXSYqX-30" edge="1" source="cMFRUIiFbclHW-MXSYqX-19">
          <mxGeometry width="50" height="50" relative="1" as="geometry">
            <mxPoint x="661.25" y="433" as="sourcePoint" />
            <mxPoint x="815" y="317.53999999999996" as="targetPoint" />
          </mxGeometry>
        </mxCell>
        <mxCell id="cMFRUIiFbclHW-MXSYqX-37" value="" style="endArrow=classic;html=1;rounded=0;entryX=0.25;entryY=0;entryDx=0;entryDy=0;" parent="1" target="cMFRUIiFbclHW-MXSYqX-29" edge="1">
          <mxGeometry width="50" height="50" relative="1" as="geometry">
            <mxPoint x="492" y="436" as="sourcePoint" />
            <mxPoint x="459.15909090909054" y="317" as="targetPoint" />
          </mxGeometry>
        </mxCell>
        <mxCell id="cMFRUIiFbclHW-MXSYqX-6" value="&lt;font face=&quot;Times New Roman&quot;&gt;DOCKER&lt;/font&gt;" style="rounded=1;whiteSpace=wrap;html=1;fillColor=#B5739D;strokeColor=#990099;" parent="1" vertex="1">
          <mxGeometry x="-110" y="373" width="1203" height="30" as="geometry" />
        </mxCell>
        <mxCell id="cMFRUIiFbclHW-MXSYqX-38" value="&lt;font face=&quot;Times New Roman&quot; style=&quot;font-size: 12px;&quot;&gt;Localhost:3000&lt;/font&gt;" style="text;html=1;align=center;verticalAlign=middle;whiteSpace=wrap;rounded=0;" parent="1" vertex="1">
          <mxGeometry x="299" y="472" width="125" height="20" as="geometry" />
        </mxCell>
        <mxCell id="cMFRUIiFbclHW-MXSYqX-39" value="&lt;font face=&quot;Times New Roman&quot; style=&quot;font-size: 12px;&quot;&gt;Localhost:8081&lt;/font&gt;" style="text;html=1;align=center;verticalAlign=middle;whiteSpace=wrap;rounded=0;" parent="1" vertex="1">
          <mxGeometry x="299" y="410" width="125" height="20" as="geometry" />
        </mxCell>
        <mxCell id="cMFRUIiFbclHW-MXSYqX-41" value="&lt;font face=&quot;Times New Roman&quot; style=&quot;font-size: 12px;&quot;&gt;Localhost:3307&lt;/font&gt;" style="text;html=1;align=center;verticalAlign=middle;whiteSpace=wrap;rounded=0;" parent="1" vertex="1">
          <mxGeometry x="578.25" y="403" width="125" height="20" as="geometry" />
        </mxCell>
        <mxCell id="cMFRUIiFbclHW-MXSYqX-42" value="&lt;font face=&quot;Times New Roman&quot; style=&quot;font-size: 12px;&quot;&gt;Localhost:3308&lt;/font&gt;" style="text;html=1;align=center;verticalAlign=middle;whiteSpace=wrap;rounded=0;" parent="1" vertex="1">
          <mxGeometry x="668" y="407" width="125" height="20" as="geometry" />
        </mxCell>
        <mxCell id="02oa2oxIcThMdSmwcblW-1" value="" style="shape=cube;whiteSpace=wrap;html=1;boundedLbl=1;backgroundOutline=1;darkOpacity=0.05;darkOpacity2=0.1;rotation=0;size=20;direction=west;flipV=1;" vertex="1" parent="1">
          <mxGeometry x="433" y="230" width="150" height="90" as="geometry" />
        </mxCell>
        <mxCell id="02oa2oxIcThMdSmwcblW-2" value="Beck-end app&lt;div&gt;monitoring&lt;/div&gt;" style="rounded=0;whiteSpace=wrap;html=1;fillColor=#B5739D;strokeColor=#990099;" vertex="1" parent="1">
          <mxGeometry x="443" y="260" width="110" height="50" as="geometry" />
        </mxCell>
        <mxCell id="02oa2oxIcThMdSmwcblW-3" value="&lt;font face=&quot;Times New Roman&quot; style=&quot;font-size: 12px;&quot;&gt;Docker container&lt;/font&gt;" style="text;html=1;align=center;verticalAlign=middle;whiteSpace=wrap;rounded=0;" vertex="1" parent="1">
          <mxGeometry x="445.5" y="230" width="125" height="20" as="geometry" />
        </mxCell>
        <mxCell id="02oa2oxIcThMdSmwcblW-4" value="&lt;font face=&quot;Times New Roman&quot; style=&quot;font-size: 12px;&quot;&gt;8083&lt;/font&gt;" style="text;html=1;align=center;verticalAlign=middle;whiteSpace=wrap;rounded=0;" vertex="1" parent="1">
          <mxGeometry x="461" y="320" width="125" height="20" as="geometry" />
        </mxCell>
        <mxCell id="02oa2oxIcThMdSmwcblW-6" value="&lt;font face=&quot;Times New Roman&quot; style=&quot;font-size: 12px;&quot;&gt;Localhost:8083&lt;/font&gt;" style="text;html=1;align=center;verticalAlign=middle;whiteSpace=wrap;rounded=0;" vertex="1" parent="1">
          <mxGeometry x="477" y="407" width="125" height="20" as="geometry" />
        </mxCell>
        <mxCell id="02oa2oxIcThMdSmwcblW-7" style="edgeStyle=orthogonalEdgeStyle;rounded=0;orthogonalLoop=1;jettySize=auto;html=1;exitX=0.5;exitY=1;exitDx=0;exitDy=0;" edge="1" parent="1" source="cMFRUIiFbclHW-MXSYqX-29" target="cMFRUIiFbclHW-MXSYqX-29">
          <mxGeometry relative="1" as="geometry" />
        </mxCell>
        <mxCell id="02oa2oxIcThMdSmwcblW-9" style="edgeStyle=orthogonalEdgeStyle;rounded=0;orthogonalLoop=1;jettySize=auto;html=1;exitX=0.5;exitY=1;exitDx=0;exitDy=0;" edge="1" parent="1" source="cMFRUIiFbclHW-MXSYqX-41" target="cMFRUIiFbclHW-MXSYqX-41">
          <mxGeometry relative="1" as="geometry" />
        </mxCell>
        <mxCell id="cMFRUIiFbclHW-MXSYqX-40" value="&lt;font face=&quot;Times New Roman&quot; style=&quot;font-size: 12px;&quot;&gt;Localhost:8082&lt;/font&gt;" style="text;html=1;align=center;verticalAlign=middle;whiteSpace=wrap;rounded=0;" parent="1" vertex="1">
          <mxGeometry x="332" y="349" width="125" height="20" as="geometry" />
        </mxCell>
        <mxCell id="02oa2oxIcThMdSmwcblW-18" value="" style="shape=cube;whiteSpace=wrap;html=1;boundedLbl=1;backgroundOutline=1;darkOpacity=0.05;darkOpacity2=0.1;rotation=0;size=20;direction=west;flipV=1;" vertex="1" parent="1">
          <mxGeometry x="967" y="230" width="150" height="90" as="geometry" />
        </mxCell>
        <mxCell id="02oa2oxIcThMdSmwcblW-19" value="MySQL Server&lt;div&gt;db-monitoring&lt;/div&gt;" style="rounded=0;whiteSpace=wrap;html=1;fillColor=#B5739D;strokeColor=#990099;" vertex="1" parent="1">
          <mxGeometry x="977" y="260" width="110" height="50" as="geometry" />
        </mxCell>
        <mxCell id="02oa2oxIcThMdSmwcblW-20" value="&lt;font face=&quot;Times New Roman&quot; style=&quot;font-size: 12px;&quot;&gt;Docker container&lt;/font&gt;" style="text;html=1;align=center;verticalAlign=middle;whiteSpace=wrap;rounded=0;" vertex="1" parent="1">
          <mxGeometry x="979.5" y="230" width="125" height="20" as="geometry" />
        </mxCell>
        <mxCell id="02oa2oxIcThMdSmwcblW-21" value="&lt;font face=&quot;Times New Roman&quot; style=&quot;font-size: 12px;&quot;&gt;3306&lt;/font&gt;" style="text;html=1;align=center;verticalAlign=middle;whiteSpace=wrap;rounded=0;" vertex="1" parent="1">
          <mxGeometry x="1016" y="320" width="71" height="20" as="geometry" />
        </mxCell>
        <mxCell id="02oa2oxIcThMdSmwcblW-22" value="" style="endArrow=classic;html=1;rounded=0;entryX=0;entryY=0;entryDx=0;entryDy=0;exitX=1;exitY=0.5;exitDx=0;exitDy=0;" edge="1" parent="1" target="02oa2oxIcThMdSmwcblW-21" source="cMFRUIiFbclHW-MXSYqX-19">
          <mxGeometry width="50" height="50" relative="1" as="geometry">
            <mxPoint x="759" y="480" as="sourcePoint" />
            <mxPoint x="1166.4999999999995" y="317" as="targetPoint" />
          </mxGeometry>
        </mxCell>
        <mxCell id="02oa2oxIcThMdSmwcblW-23" value="&lt;font face=&quot;Times New Roman&quot; style=&quot;font-size: 12px;&quot;&gt;Localhost:3309&lt;/font&gt;" style="text;html=1;align=center;verticalAlign=middle;whiteSpace=wrap;rounded=0;" vertex="1" parent="1">
          <mxGeometry x="776" y="410" width="125" height="20" as="geometry" />
        </mxCell>
      </root>
    </mxGraphModel>
  </diagram>
</mxfile>
